HIERARCHY
ROOT pelvis
{
	OFFSET 0.000000 0.000000 0.000000
	CHANNELS 6 Xposition Yposition Zposition Zrotation Xrotation Yrotation
	JOINT lfemur
	{
		OFFSET 11.446000 0.000000 0.000000
		CHANNELS 3 Zrotation Xrotation Yrotation
		JOINT ltibia
		{
			OFFSET 0.000000 -42.030400 0.000000
			CHANNELS 3 Zrotation Xrotation Yrotation
			JOINT lfoot
			{
				OFFSET 0.000000 -39.930200 0.000000
				CHANNELS 3 Zrotation Xrotation Yrotation
				JOINT ltoes
				{
					OFFSET 0.000000 0.000000 11.775800
					CHANNELS 3 Zrotation Xrotation Yrotation
					End Site
					{
					    OFFSET 0.000000 0.000000 5.000000
					}
				}
			}
		}
	}
	JOINT rfemur
	{
		OFFSET -11.446000 0.000000 0.000000
		CHANNELS 3 Zrotation Xrotation Yrotation
		JOINT rtibia
		{
			OFFSET 0.000000 -42.030400 0.000000
			CHANNELS 3 Zrotation Xrotation Yrotation
			JOINT rfoot
			{
				OFFSET 0.000000 -39.930200 0.000000
				CHANNELS 3 Zrotation Xrotation Yrotation
				JOINT rtoes
				{
					OFFSET 0.000000 0.000000 11.775800
					CHANNELS 3 Zrotation Xrotation Yrotation
					End Site
					{
					    OFFSET 0.000000 0.000000 5.000000
					}
				}
			}
		}
	}
	JOINT thorax
	{
		OFFSET 0.000000 11.255600 -5.000000
		CHANNELS 3 Zrotation Xrotation Yrotation
		JOINT head
		{
			OFFSET 0.000000 43.799300 0.000000
			CHANNELS 3 Zrotation Xrotation Yrotation
			End Site
			{
			    OFFSET 0.000000 5.000000 0.000000
			}
		}
		JOINT lclavicle
		{
			OFFSET 0.000000 39.863000 0.000000
			CHANNELS 3 Zrotation Xrotation Yrotation
			JOINT lhumerus
			{
				OFFSET 17.380600 4.958300 0.000000
				CHANNELS 3 Zrotation Xrotation Yrotation
				JOINT lradius
				{
					OFFSET 0.000000 -27.561300 0.000000
					CHANNELS 3 Zrotation Xrotation Yrotation
					JOINT lhand
					{
						OFFSET 0.000000 -26.933000 0.000000
						CHANNELS 3 Zrotation Xrotation Yrotation
						End Site
						{
						    OFFSET 0.000000 -5.000000 0.000000
						}
					}
				}
			}
		}
		JOINT rclavicle
		{
			OFFSET 0.000000 39.863000 0.000000
			CHANNELS 3 Zrotation Xrotation Yrotation
			JOINT rhumerus
			{
				OFFSET -17.380600 4.958300 0.000000
				CHANNELS 3 Zrotation Xrotation Yrotation
				JOINT rradius
				{
					OFFSET 0.000000 -27.561300 0.000000
					CHANNELS 3 Zrotation Xrotation Yrotation
					JOINT rhand
					{
						OFFSET 0.000000 -26.933000 0.000000
						CHANNELS 3 Zrotation Xrotation Yrotation
						End Site
						{
						    OFFSET 0.000000 -5.000000 0.000000
						}
					}
				}
			}
		}
	}
}
MOTION
Frames: 9
Frame Time:	0.0333333
66.987600 81.636100 12.168100 1.603714 -5.193070 -94.565504 -11.338141 -25.780173 -6.435684 0.000000 46.373343 -0.000000 0.000000 -5.832104 7.101314 0.000000 -1.331194 -0.000000 -5.819244 -27.917733 -2.915379 0.000000 48.860530 -0.000000 0.000000 -9.618021 0.322544 0.000000 -29.532856 0.000000 -4.983819 16.448225 -1.962245 11.159960 17.662175 8.858615 -15.085973 0.000000 0.761991 33.125398 -1.482818 -19.619422 180.000034 -57.217646 160.895482 18.716489 -6.404171 0.000000 20.502714 0.000000 2.344882 -33.993734 -5.328137 23.934088 180.000037 -56.536059 -169.299847 -18.713344 2.891689 0.000000 
66.804400 81.446400 11.615600 1.480621 -4.950888 -92.653652 -11.310232 -25.914771 -7.570414 0.000000 47.157227 0.000000 -0.000000 -5.812499 6.386772 0.000000 -1.348747 -0.000000 -5.868493 -27.308409 -4.357180 -0.000000 49.256889 -0.000000 -0.000000 -10.572091 -0.273044 0.000000 -29.529147 -0.000000 -4.731768 16.715076 -2.216302 11.723617 17.120493 7.971824 -14.993703 0.000000 0.532431 32.914207 -1.878084 -21.012433 -180.000036 -57.480524 161.188171 18.428545 -5.904088 0.000000 20.335369 0.000000 2.192232 -34.572371 -7.942539 21.947161 180.000032 -56.843639 -169.119431 -19.385457 3.120355 0.000000 
66.739100 81.836200 10.936200 2.015853 -4.535683 -89.967409 -11.248088 -25.911335 -9.572757 -0.000000 46.219555 0.000000 -0.000000 -4.648758 5.689896 0.000000 -1.362432 -0.000000 -5.591829 -26.276679 -5.735908 -0.000000 47.555233 -0.000000 0.000000 -10.441978 -1.270327 0.000000 -29.526132 0.000000 -4.322901 16.362596 -2.334647 12.764845 16.997277 6.423293 -14.798313 0.000000 0.396902 32.335691 -2.540168 -23.247085 180.000029 -58.613948 161.567628 17.575811 -6.569739 -0.000000 19.378687 -0.000000 1.909856 -34.723036 -14.045579 18.892567 -180.000031 -59.478562 -169.516707 -20.254401 3.420507 0.000000 
66.735200 82.850300 10.237200 2.744841 -4.119255 -87.393092 -10.970229 -25.073960 -11.601254 -0.000000 43.118747 -0.000000 0.000000 -2.336489 4.982549 0.000000 -1.380744 -0.000000 -5.072201 -24.516283 -6.753286 0.000000 43.678683 -0.000000 -0.000000 -8.958335 -2.310457 -0.000000 -29.523062 -0.000000 -4.139276 15.560598 -2.041208 14.284605 17.345371 4.511010 -14.333002 0.000000 0.364780 31.315382 -2.464708 -26.007828 180.000034 -59.678855 162.133861 16.522976 -6.889767 0.000000 17.803174 -0.000000 2.414517 -35.741472 -24.369132 13.821275 -180.000035 -65.999281 -168.462532 -18.678335 2.890464 0.000000 
66.867000 84.149300 9.555000 3.733016 -3.908196 -85.029403 -10.824750 -24.120588 -13.657941 -0.000000 38.880611 0.000000 0.000000 0.923158 4.610190 0.000000 -1.405801 -0.000000 -4.733781 -22.680351 -7.753774 -0.000000 38.700215 -0.000000 0.000000 -6.520033 -2.901924 0.000000 -29.521364 -0.000000 -4.208354 14.274684 -0.992636 16.114277 18.182678 2.215745 -13.629141 0.000000 0.515017 30.401621 -2.320163 -29.507779 -180.000033 -60.290764 162.869445 15.922369 -6.946355 0.000000 15.740956 0.000000 2.950821 -38.635614 -38.678610 6.668070 -180.000036 -78.950704 -167.543685 -19.583266 3.197648 0.000000 
67.183200 85.291400 8.856500 5.157011 -3.842904 -83.105658 -10.790910 -24.120419 -15.063366 -0.000000 35.244702 -0.000000 0.000000 3.890994 4.004736 -0.000000 -1.431675 -0.000000 -4.487275 -21.647868 -8.186304 -0.000000 33.946102 -0.000000 -0.000000 -3.979586 -3.053241 -0.000000 -29.519780 -0.000000 -4.379949 12.748729 0.829503 17.846015 18.938141 0.321044 -12.856675 -0.000000 1.330516 29.899401 -3.135658 -33.350441 180.000035 -60.295448 162.778662 14.958850 -7.493758 -0.000000 12.180212 0.000000 3.937688 -44.655052 -54.377729 -5.519223 0.000007 -79.553740 12.047602 -18.652384 2.883909 -0.000000 
67.442400 86.018600 8.175500 5.832548 -3.613568 -81.274536 -10.825542 -24.711239 -15.178261 -0.000000 34.073833 -0.000000 0.000000 4.844237 3.134735 -0.000000 -1.454261 -0.000000 -4.110780 -20.503203 -8.832864 0.000000 30.501097 0.000000 -0.000000 -2.124357 -3.467316 0.000000 -29.519783 -0.000000 -4.577594 10.993037 2.329340 19.235255 19.364962 -1.056912 -11.962898 0.000000 5.383936 30.290019 -5.622199 -38.869226 180.000035 -59.984223 164.264231 13.733604 -7.323771 -0.000000 7.070365 -0.000000 4.754509 -56.926255 -70.622645 -29.546414 -0.000001 -45.177538 11.118205 -14.727666 1.550732 -0.000000 
67.594900 86.265900 7.510100 6.506401 -3.167236 -78.736952 -11.440100 -26.731046 -14.915461 -0.000000 36.246029 0.000000 -0.000000 5.670823 3.916455 -0.000000 -1.436138 0.000000 -3.963442 -20.331877 -10.094977 -0.000000 29.343356 0.000000 -0.000000 -1.509924 -3.797867 -0.000000 -29.519633 0.000000 -4.097605 9.867620 6.776283 22.576981 18.232195 -4.601323 -10.092773 -0.000000 6.711560 28.603278 -9.403202 -44.868565 180.000030 -60.439837 164.429289 12.441509 -8.193740 -0.000000 -3.149178 -0.000000 4.341629 -92.529975 -73.111888 -91.250723 0.000001 -14.139067 29.352696 -21.380841 3.808049 -0.000000 
67.468300 86.050600 6.713700 7.710972 -2.469486 -74.120147 -12.571201 -29.580282 -15.171713 -0.000000 39.304977 -0.000000 -0.000000 7.760071 3.535830 -0.000000 -1.440681 -0.000000 -4.564916 -21.416579 -13.372643 0.000000 30.758233 -0.000000 0.000000 -2.498850 -4.261115 -0.000000 -29.517225 0.000000 -3.420447 10.136610 9.748733 25.932339 15.578777 -7.188796 -8.850821 -0.000000 7.432639 26.939666 -14.775122 -48.914648 180.000034 -60.161429 164.007212 12.164965 -7.981791 0.000000 -10.837126 0.000000 1.434753 -86.753538 -67.646113 -99.660718 -0.000000 -18.416904 30.935382 -18.062666 2.687563 -0.000000 
